# xmcd
#
# Track frame offsets:
#	150
#	12599
#	31559
#	48532
#	70748
#	86036
#	105370
#	123615
#	140853
#	168574
#	191956
#
# Disc length: 2749 seconds
#
# Revision: 2
# Processed by: cddbd v1.5.2PL0 Copyright (c) Steve Scherf et al.
# Submitted via: EZCDDA 4.3.2
#
DISCID=9c0abb0b
DTITLE=Hromovlad - Ohna Hlad, Vody Chlad
DYEAR=1900
DGENRE=
TTITLE0=Lesom I Casom
TTITLE1=Vitazstvo Noci
TTITLE2=Briezdenie
TTITLE3=Tvare Zivlov
TTITLE4=Posledny Z Poslednych
TTITLE5=Ohna Hlad, Vody Chlad
TTITLE6=Zabudnuty Sen
TTITLE7=Lithewa
TTITLE8=V Ohni Zhynie Ludsky Tvor
TTITLE9=Narek Stromov
TTITLE10=Bolo I Nebolo
EXTD=
EXTT0=
EXTT1=
EXTT2=
EXTT3=
EXTT4=
EXTT5=
EXTT6=
EXTT7=
EXTT8=
EXTT9=
EXTT10=
PLAYORDER=
